<svg width="34" height="33" viewBox="0 0 34 33" fill="none" xmlns="http://www.w3.org/2000/svg">
<path d="M33 14.78C33.3717 14.5032 33.6473 14.1169 33.7884 13.6754C33.9295 13.234 33.9288 12.7594 33.7866 12.3183C33.6443 11.8773 33.3676 11.4917 32.9952 11.2159C32.6228 10.94 32.1734 10.7876 31.71 10.78L22.71 10.44C22.6657 10.437 22.6233 10.4212 22.5878 10.3946C22.5524 10.368 22.5253 10.3317 22.51 10.29L19.4 1.89002C19.2437 1.46266 18.9599 1.09364 18.587 0.832921C18.2141 0.572199 17.77 0.432373 17.315 0.432373C16.86 0.432373 16.4159 0.572199 16.043 0.832921C15.6701 1.09364 15.3863 1.46266 15.23 1.89002L12.13 10.32C12.1147 10.3617 12.0876 10.398 12.0522 10.4246C12.0167 10.4512 11.9742 10.467 11.93 10.47L2.92999 10.81C2.4666 10.8176 2.01719 10.97 1.64479 11.2459C1.27238 11.5217 0.995654 11.9073 0.853403 12.3483C0.711153 12.7894 0.710515 13.264 0.851578 13.7054C0.992641 14.1469 1.26833 14.5332 1.63999 14.81L8.69999 20.36C8.73533 20.3878 8.76174 20.4254 8.77595 20.468C8.79017 20.5107 8.79158 20.5566 8.77999 20.6L6.34999 29.21C6.22407 29.6485 6.23627 30.1151 6.38493 30.5463C6.53359 30.9776 6.8115 31.3526 7.18084 31.6203C7.55019 31.888 7.99304 32.0355 8.44915 32.0426C8.90526 32.0497 9.35249 31.9161 9.72999 31.66L17.19 26.66C17.2267 26.6347 17.2703 26.6211 17.315 26.6211C17.3597 26.6211 17.4032 26.6347 17.44 26.66L24.9 31.66C25.2724 31.9249 25.718 32.0672 26.175 32.0672C26.632 32.0672 27.0776 31.9249 27.45 31.66C27.8194 31.3948 28.0976 31.0217 28.2462 30.5919C28.3949 30.1621 28.4067 29.6968 28.28 29.26L25.83 20.62C25.817 20.5767 25.8177 20.5303 25.832 20.4874C25.8464 20.4444 25.8736 20.4069 25.91 20.38L33 14.78Z" fill="black"/>
</svg>
